<svg id="Layer_1" data-name="Layer 1" xmlns="http://www.w3.org/2000/svg" xmlns:xlink="http://www.w3.org/1999/xlink" viewBox="0 0 292.93 292.93"><defs><style>.cls-1{stroke:#000;stroke-miterlimit:10;stroke-width:0.25px;fill:url(#linear-gradient);}.cls-2{fill:url(#linear-gradient-2);}.cls-3{fill:url(#linear-gradient-3);}</style><linearGradient id="linear-gradient" x1="0.13" y1="146.47" x2="292.81" y2="146.47" gradientUnits="userSpaceOnUse"><stop offset="0" stop-color="#fff"/><stop offset="1" stop-color="#fff"/></linearGradient><linearGradient id="linear-gradient-2" x1="360.74" y1="595.28" x2="457.21" y2="595.28" gradientUnits="userSpaceOnUse"><stop offset="0" stop-color="#39814a"/><stop offset="0.28" stop-color="#2eb635"/><stop offset="0.69" stop-color="#27ce27"/><stop offset="0.96" stop-color="#24d722"/></linearGradient><linearGradient id="linear-gradient-3" x1="439.84" y1="601.2" x2="518.57" y2="601.2" gradientUnits="userSpaceOnUse"><stop offset="0" stop-color="#24d722"/><stop offset="0.55" stop-color="#4ade22"/><stop offset="1" stop-color="#62fe22"/></linearGradient></defs><circle class="cls-1" cx="146.47" cy="146.47" r="146.34"/><path class="cls-2" d="M441.23,562.51c-7.39-5-11.54-1.91-13.67,1.3a12.07,12.07,0,0,0-1.9,6.67h0l-.31,50.59a29.77,29.77,0,0,1-10.58,23,34.59,34.59,0,0,1-5.22,3.51,33.49,33.49,0,0,1-28.85,1.13A35.43,35.43,0,0,1,364.9,636a24.35,24.35,0,0,1-4.16-13.85V541.63h23.11L383.37,613c0,3.26.41,8,2.43,10.51,3.19,4,10.53,4.21,14.67.74,3.84-3.22,3.31-9.1,3.36-14.11v-35a38.69,38.69,0,0,1,11.38-27.47c.62-.62,1-1,1-1,7.66-7.29,13.58-7.29,13.58-7.29s13.47-2.6,23.13,6.83h0s-8.88,6.93-11.69,16.24h0" transform="translate(-290.31 -448.81)"/><path class="cls-3" d="M468.24,583.83s-7.22-3.48-6.48-13.7c0,0,.25-10,12.46-10.21,0,0,8.39-1.34,12.83,5.34a12.89,12.89,0,0,1,2,6.52c.2,4.09-.33,10.85-5.82,12.05L489,629.18l-26.56-.12-.77,25.29s14.17,4.81,32-.83c0,0,9.21,14.78,24.91,10.79V643.13s-4.48,1.25-10.46-3.73c0,0,8.47-5.24,6.22-31.9L514.12,571a24.82,24.82,0,0,0-2.66-11c-3.07-6-8.8-14.92-17.06-18.25,0,0-15.69-9.72-34.88,0A45.27,45.27,0,0,0,446,552.9a28.05,28.05,0,0,0-6.14,17.71v54.58l28.4-41.36-5.73,44.11-.8,26.41s-21.87-9.85-21.87-29.16" transform="translate(-290.31 -448.81)"/></svg>